<svg width="160" height="160" viewBox="0 0 160 160" fill="none" xmlns="http://www.w3.org/2000/svg">
<path fill-rule="evenodd" clip-rule="evenodd" d="M155 80C155 121.421 121.421 155 80 155C38.5786 155 5 121.421 5 80C5 38.5786 38.5786 5 80 5C121.421 5 155 38.5786 155 80ZM160 80C160 124.183 124.183 160 80 160C35.8172 160 0 124.183 0 80C0 35.8173 35.8172 0 80 0C124.183 0 160 35.8173 160 80ZM65.5 88.663C65.9858 88.2941 66.4862 87.9432 67 87.6116V34C67 31.2385 69.2386 29 72 29H87C89.7614 29 92 31.2385 92 34V87C92.5123 87.2964 93.0126 87.6111 93.5 87.9432C99.8383 92.2632 104 99.5402 104 107.789C104 121.044 93.2548 131.789 80 131.789C66.7452 131.789 56 121.044 56 107.789C56 99.9823 59.7275 93.046 65.5 88.663ZM70 89.2456L68.6272 90.132C62.8282 93.8757 59 100.386 59 107.789C59 119.387 68.402 128.789 80 128.789C91.598 128.789 101 119.387 101 107.789C101 100.02 96.7826 93.2323 90.4978 89.5968L89 88.7303V87V34C89 32.8954 88.1046 32 87 32H72C70.8954 32 70 32.8954 70 34V87.6116V89.2456ZM84 62C84 60.8954 83.1046 60 82 60H78C76.8954 60 76 60.8954 76 62V94.1713C76 95.0391 75.4332 95.7937 74.6428 96.1516C70.1356 98.1929 67 102.73 67 108C67 115.18 72.8203 121 80 121C87.1797 121 93 115.18 93 108C93 102.73 89.8644 98.1929 85.3572 96.1516C84.5668 95.7937 84 95.0391 84 94.1713V62ZM60 77C61.6569 77 63 75.6569 63 74C63 72.3431 61.6569 71 60 71C58.3431 71 57 72.3431 57 74C57 75.6569 58.3431 77 60 77ZM63 64C63 65.6569 61.6569 67 60 67C58.3431 67 57 65.6569 57 64C57 62.3431 58.3431 61 60 61C61.6569 61 63 62.3431 63 64ZM60 57C61.6569 57 63 55.6569 63 54C63 52.3431 61.6569 51 60 51C58.3431 51 57 52.3431 57 54C57 55.6569 58.3431 57 60 57ZM63 44C63 45.6569 61.6569 47 60 47C58.3431 47 57 45.6569 57 44C57 42.3431 58.3431 41 60 41C61.6569 41 63 42.3431 63 44Z" fill="#222222"/>
</svg>
