<svg width="160" height="160" viewBox="0 0 160 160" fill="none" xmlns="http://www.w3.org/2000/svg">
<path fill-rule="evenodd" clip-rule="evenodd" d="M155 80C155 121.421 121.421 155 80 155C38.5786 155 5 121.421 5 80C5 38.5786 38.5786 5 80 5C121.421 5 155 38.5786 155 80ZM160 80C160 124.183 124.183 160 80 160C35.8172 160 0 124.183 0 80C0 35.8172 35.8172 0 80 0C124.183 0 160 35.8172 160 80ZM81.0536 29.0223C84.4034 28.7583 87.1627 30.859 89.1594 34.2821C90.4906 36.564 90.4028 38.9741 89.3563 41.0011C88.3648 42.9216 86.5908 44.3826 84.6481 45.3016C82.3389 46.394 79.399 46.882 76.577 46.2317C76.9054 47.2101 77.3217 48.3285 77.83 49.6356L73.17 51.4478C71.8546 48.0654 70.8389 45.2207 70.6589 42.5804C67.9745 39.7769 65.8634 37.2247 64.3898 35.323C63.5908 34.2918 62.9777 33.4498 62.5607 32.8602C62.3522 32.5653 62.1926 32.3334 62.0832 32.1722C62.0285 32.0916 61.9863 32.0287 61.9569 31.9845L61.9223 31.9322L61.9121 31.9168L61.9089 31.9118L61.9077 31.91L61.9072 31.9093C61.907 31.909 61.9068 31.9087 64 30.5417C66.0932 29.1748 66.093 29.1745 66.0929 29.1743L66.0968 29.1803L66.1193 29.2142C66.1406 29.2462 66.1743 29.2965 66.2203 29.3644C66.3124 29.5001 66.4538 29.7056 66.643 29.9733C67.0216 30.5086 67.5915 31.2917 68.3422 32.2605C69.2671 33.4541 70.4641 34.9266 71.9136 36.5633C72.3369 35.7327 72.863 34.9041 73.489 34.0565C75.3939 31.4772 77.971 29.2652 81.0536 29.0223ZM75.7587 40.4987C77.7101 41.8358 80.3362 41.8102 82.51 40.7818C83.7382 40.2008 84.5497 39.4119 84.9135 38.7074C85.2222 38.1094 85.2594 37.5195 84.8406 36.8014C83.3373 34.2245 82.0966 33.9556 81.4464 34.0068C80.529 34.0791 79.1061 34.8671 77.511 37.0269C76.5007 38.3949 75.9776 39.475 75.7587 40.4987ZM53.5 80.0417C59.299 80.0417 64 75.3407 64 69.5417C64 63.7427 59.299 59.0417 53.5 59.0417C47.701 59.0417 43 63.7427 43 69.5417C43 75.3407 47.701 80.0417 53.5 80.0417ZM79.5 80.0417C85.299 80.0417 90 75.3407 90 69.5417C90 63.7427 85.299 59.0417 79.5 59.0417C73.701 59.0417 69 63.7427 69 69.5417C69 75.3407 73.701 80.0417 79.5 80.0417ZM116 69.5417C116 75.3407 111.299 80.0417 105.5 80.0417C99.701 80.0417 95 75.3407 95 69.5417C95 63.7427 99.701 59.0417 105.5 59.0417C111.299 59.0417 116 63.7427 116 69.5417ZM94.5 105.042C100.299 105.042 105 100.341 105 94.5417C105 88.7427 100.299 84.0417 94.5 84.0417C88.701 84.0417 84 88.7427 84 94.5417C84 100.341 88.701 105.042 94.5 105.042ZM77 94.5417C77 100.341 72.299 105.042 66.5 105.042C60.701 105.042 56 100.341 56 94.5417C56 88.7427 60.701 84.0417 66.5 84.0417C72.299 84.0417 77 88.7427 77 94.5417ZM79.5 130.042C85.299 130.042 90 125.341 90 119.542C90 113.743 85.299 109.042 79.5 109.042C73.701 109.042 69 113.743 69 119.542C69 125.341 73.701 130.042 79.5 130.042Z" fill="black"/>
</svg>
